<?xml version="1.0" standalone="no"?>
<!DOCTYPE svg PUBLIC "-//W3C//DTD SVG 20010904//EN"
 "http://www.w3.org/TR/2001/REC-SVG-20010904/DTD/svg10.dtd">
<svg version="1.0" xmlns="http://www.w3.org/2000/svg"
 width="800.000000pt" height="560.000000pt" viewBox="0 0 800.000000 560.000000"
 preserveAspectRatio="xMidYMid meet">

<g transform="translate(0.000000,560.000000) scale(0.100000,-0.100000)"
fill="#000000" stroke="none">
<path d="M3990 4655 c-11 -13 -10 -14 3 -10 11 5 25 -11 52 -59 39 -70 50 -80
105 -91 19 -3 52 -11 73 -16 l38 -10 -57 -65 -57 -65 7 -85 c4 -52 3 -84 -3
-84 -5 0 -40 14 -77 30 -37 17 -71 29 -77 27 -7 -2 69 -37 166 -76 5 -2 6 35
2 91 l-7 94 56 65 c31 35 56 67 56 71 0 7 -18 13 -70 23 -102 19 -104 20 -149
100 -24 41 -44 75 -46 75 -1 0 -8 -7 -15 -15z"/>
<path d="M3828 4493 c7 -3 16 -2 19 1 4 3 -2 6 -13 5 -11 0 -14 -3 -6 -6z"/>
<path d="M3730 4472 c0 -5 15 -21 33 -38 l32 -29 -28 31 c-21 23 -25 33 -15
37 9 4 7 6 -4 6 -10 1 -18 -3 -18 -7z"/>
<path d="M3825 4360 c10 -11 20 -20 23 -20 3 0 -3 9 -13 20 -10 11 -20 20 -23
20 -3 0 3 -9 13 -20z"/>
<path d="M4518 4288 c3 -12 11 -34 19 -48 18 -35 16 -50 -7 -50 -19 0 -19 -2
-8 -24 7 -13 30 -42 50 -65 36 -39 41 -41 95 -41 76 1 89 12 92 82 2 56 2 56
-54 112 -59 60 -75 67 -75 37 0 -21 -22 -19 -70 6 -37 19 -49 16 -42 -9z m62
-32 c6 -8 18 -12 25 -10 14 6 35 -24 35 -47 0 -10 -3 -10 -12 -1 -15 15 -32
16 -23 2 9 -15 -11 -12 -23 3 -16 19 -33 67 -23 67 5 0 14 -6 21 -14z m133
-47 c3 -10 3 -19 1 -19 -10 0 -53 56 -54 69 0 20 46 -24 53 -50z m-33 -38 c-1
-29 -11 -17 -25 29 -7 22 -6 23 9 11 9 -7 16 -25 16 -40z m-46 -7 c9 -8 16
-17 16 -20 0 -11 -30 -2 -51 16 -24 19 -24 19 -2 20 12 0 29 -7 37 -16z m106
-4 c0 -11 -2 -20 -4 -20 -2 0 -6 9 -9 20 -3 11 -1 20 4 20 5 0 9 -9 9 -20z
m-20 -32 c0 -10 -4 -18 -10 -18 -5 0 -10 15 -10 33 0 24 3 28 10 17 5 -8 10
-23 10 -32z m-130 11 c11 -19 10 -20 -9 -9 -12 6 -21 15 -21 20 0 18 19 11 30
-11z m95 -31 c6 -6 0 -8 -19 -6 -16 2 -31 9 -34 17 -3 10 2 11 19 6 13 -4 29
-12 34 -17z m-50 -26 c-3 -3 -11 0 -18 7 -9 10 -8 11 6 5 10 -3 15 -9 12 -12z"/>
<path d="M3842 4275 c0 -16 2 -22 5 -12 2 9 2 23 0 30 -3 6 -5 -1 -5 -18z"/>
<path d="M3830 4172 c0 -15 4 -20 16 -15 9 3 12 9 7 12 -4 3 -11 10 -15 15 -5
5 -8 0 -8 -12z"/>
<path d="M3324 4095 c-67 -74 -91 -91 -59 -41 33 50 7 25 -33 -32 -23 -32 -48
-65 -57 -72 -15 -12 -16 -10 -9 16 4 16 11 40 16 53 5 13 7 25 6 26 -2 1 -21
-11 -42 -26 -32 -24 -35 -29 -17 -29 11 0 21 -3 21 -7 0 -25 -23 -83 -36 -94
-14 -11 -15 -9 -9 23 5 28 3 37 -10 42 -18 6 -33 0 -104 -46 l-46 -29 46 6
c43 6 48 5 67 -22 44 -58 41 -58 89 -9 25 25 49 46 54 46 5 0 9 -17 10 -37 l1
-38 13 35 c7 19 14 46 14 59 1 14 13 39 29 55 15 17 18 23 6 13 -11 -9 -26
-17 -33 -17 -14 0 29 57 108 142 29 32 51 58 48 58 -3 0 -36 -34 -73 -75z
m-234 -190 c0 -19 -2 -35 -5 -35 -3 0 -17 12 -30 27 -24 29 -19 43 18 43 13 0
17 -8 17 -35z m80 3 c0 -14 -50 -68 -62 -68 -15 0 -8 18 18 49 27 32 44 40 44
19z"/>
<path d="M3980 4029 c-14 -4 -52 -7 -85 -8 -33 -1 -69 -7 -80 -15 -11 -7 -36
-16 -56 -20 -21 -4 -52 -17 -71 -30 -19 -12 -47 -26 -61 -30 -15 -3 -44 -22
-65 -40 -20 -18 -52 -41 -70 -50 -18 -9 -40 -31 -48 -49 -9 -18 -28 -40 -44
-49 -16 -9 -36 -30 -45 -48 -9 -17 -32 -52 -51 -77 -19 -24 -37 -56 -40 -70
-4 -14 -22 -47 -40 -75 -19 -27 -34 -61 -34 -75 0 -14 -9 -40 -19 -57 -11 -17
-22 -49 -26 -71 -4 -22 -14 -59 -22 -82 -9 -23 -13 -57 -10 -75 2 -18 0 -42
-6 -53 -14 -26 -26 -319 -18 -417 1 -10 1 -43 1 -74 -1 -32 4 -62 11 -71 7 -8
16 -44 20 -79 3 -36 13 -72 21 -82 9 -9 18 -36 21 -60 3 -24 17 -60 31 -81 14
-20 26 -46 26 -57 0 -11 18 -50 40 -87 22 -36 40 -71 40 -78 0 -11 36 -51 132
-147 97 -97 126 -121 154 -128 16 -4 42 -17 57 -30 15 -13 44 -26 65 -30 20
-3 48 -13 62 -22 23 -15 135 -33 205 -34 67 0 181 15 200 27 11 6 41 14 67 17
29 3 61 15 81 30 18 14 46 28 63 32 17 4 44 20 60 37 16 16 47 40 69 54 22 13
47 35 55 49 7 15 29 38 47 52 18 14 42 42 52 62 10 20 35 61 55 91 20 29 36
61 36 71 0 10 7 23 16 31 23 19 54 84 54 114 0 14 9 42 20 62 11 21 20 56 20
79 0 23 7 58 15 78 9 21 15 54 15 74 0 20 4 82 9 137 6 55 8 147 6 205 -2 58
-4 128 -4 156 0 27 -5 63 -12 80 -7 16 -15 55 -19 86 -4 31 -17 69 -28 85 -11
15 -23 47 -27 70 -4 24 -18 59 -31 78 -13 20 -29 56 -35 80 -6 24 -25 61 -43
82 -17 21 -44 57 -58 80 -15 23 -41 49 -57 59 -16 9 -34 27 -39 39 -5 11 -25
33 -43 49 -95 77 -123 97 -148 103 -14 3 -42 16 -61 29 -19 12 -51 25 -70 29
-19 4 -44 14 -55 21 -11 8 -42 14 -70 14 -27 0 -64 4 -80 8 -17 5 -41 5 -55 1z
m120 -64 c55 -38 60 -49 19 -40 -35 8 -149 65 -149 76 0 15 94 -11 130 -36z
m-112 -1 c23 -14 42 -27 42 -31 0 -11 -81 5 -136 28 -44 18 -52 25 -37 31 28
11 83 -1 131 -28z m180 12 c29 -15 111 -96 98 -96 -14 0 -121 68 -141 90 -17
18 -17 20 -1 20 9 0 29 -6 44 -14z m-298 -25 l55 -18 -42 -7 c-50 -9 -175 2
-167 15 5 9 60 27 84 27 8 1 40 -7 70 -17z m427 -20 c27 -17 103 -111 88 -111
-17 0 -74 48 -103 86 -36 48 -33 54 15 25z m-117 -43 c74 -22 154 -64 222
-117 50 -38 54 -50 22 -66 -76 -39 -90 -54 -121 -132 -17 -43 -41 -112 -53
-153 -12 -41 -30 -82 -41 -92 -10 -9 -19 -21 -19 -27 0 -5 -8 -16 -19 -23 -10
-7 -21 -23 -25 -35 -11 -36 -23 -27 -30 23 -4 30 -14 52 -28 63 -19 16 -20 21
-9 48 10 26 10 39 -3 79 -9 27 -22 59 -28 71 -8 16 -8 40 -1 83 5 33 6 63 1
66 -4 3 -8 15 -8 26 0 23 -27 58 -44 58 -15 0 -59 -141 -51 -163 8 -18 -28
-87 -65 -126 -14 -15 -30 -36 -37 -46 -11 -19 -12 -19 -12 3 -1 30 -22 28 -59
-8 -36 -34 -50 -37 -67 -14 -9 13 -16 14 -31 6 -18 -10 -29 -33 -50 -111 -6
-22 -9 -23 -53 -16 -122 20 -281 30 -281 17 0 -11 57 -62 70 -62 4 0 10 -9 13
-20 3 -11 12 -20 21 -20 9 0 16 -7 16 -15 0 -8 5 -15 11 -15 6 0 18 -7 26 -16
12 -11 31 -15 73 -12 l57 3 -16 -47 -15 -48 -82 0 -82 0 -33 68 c-28 56 -39
68 -61 70 -22 3 -30 -2 -37 -21 -21 -55 -29 -33 -11 30 80 289 248 523 455
638 153 84 322 103 485 53z m-410 12 c0 -14 -97 -40 -149 -40 l-46 1 28 24
c24 21 38 25 98 25 38 0 69 -4 69 -10z m672 -46 c17 -20 58 -108 58 -126 0 -6
-10 -3 -21 8 -20 18 -34 37 -89 127 l-23 39 29 -15 c16 -8 37 -23 46 -33z
m-793 -19 c-16 -16 -100 -48 -159 -60 -35 -7 -35 -7 -16 13 29 33 97 62 146
62 39 0 43 -2 29 -15z m913 -100 c6 -10 17 -42 24 -70 l13 -50 -28 33 c-15 18
-40 62 -54 99 l-27 66 31 -29 c17 -16 35 -38 41 -49z m-1032 5 c-35 -29 -93
-60 -139 -75 l-24 -7 22 28 c12 15 31 34 41 41 26 18 90 41 115 42 16 0 14 -5
-15 -29z m1130 -114 c13 -27 20 -62 20 -97 l0 -54 -27 45 c-24 39 -52 131 -53
169 0 23 37 -16 60 -63z m-1210 36 c0 -15 -86 -90 -127 -111 -24 -12 -43 -19
-43 -16 0 23 58 84 103 107 55 29 67 33 67 20z m1281 -146 c19 -41 27 -166 11
-166 -14 0 -35 74 -41 147 -7 78 1 83 30 19z m-1390 -9 c-27 -39 -79 -88 -119
-111 -17 -10 12 60 35 86 21 24 105 79 111 74 2 -3 -10 -25 -27 -49z m-51
-102 c-15 -39 -55 -98 -89 -129 -30 -29 -31 -29 -31 -7 0 35 26 75 76 120 26
22 48 41 50 41 2 0 -1 -11 -6 -25z m1497 -22 c16 -40 21 -162 7 -184 -11 -19
-33 84 -34 159 0 34 2 62 6 62 3 0 12 -17 21 -37z m-153 -90 c-51 -65 -72 -81
-116 -88 -21 -4 -38 -11 -38 -16 0 -5 -11 -15 -25 -21 -14 -6 -25 -18 -25 -27
0 -25 -78 -101 -105 -101 -19 0 -19 -5 1 -36 21 -31 11 -43 -16 -19 -11 10
-23 16 -25 13 -3 -3 8 -17 25 -31 16 -14 30 -33 30 -41 0 -9 -2 -16 -3 -16 -9
0 -75 35 -96 52 -29 22 -43 22 -84 4 -18 -8 -39 -17 -47 -19 -12 -4 -11 -6 3
-6 9 -1 17 -5 17 -9 0 -14 -33 -47 -60 -60 -22 -11 -22 -11 -2 -6 12 3 22 3
22 0 0 -3 -10 -15 -22 -27 -13 -12 -17 -18 -9 -14 11 6 13 4 7 -11 -13 -34
-11 -39 19 -42 17 -2 35 -9 40 -15 6 -7 37 -26 70 -42 159 -77 262 -248 253
-421 l-3 -64 128 0 128 0 -45 -88 c-89 -171 -236 -323 -381 -392 -293 -140
-621 -45 -835 242 -35 46 -80 118 -101 158 l-38 75 127 3 127 3 -3 63 c-9 171
95 344 253 421 30 15 55 34 55 42 0 11 7 14 27 10 16 -3 37 2 51 11 13 9 27
11 30 6 4 -5 14 -8 22 -8 8 1 22 2 32 3 14 1 15 5 5 31 -10 25 -9 33 3 40 8 5
11 10 6 10 -6 0 3 14 19 30 16 17 24 30 18 30 -5 0 -21 -16 -35 -36 -15 -20
-29 -31 -32 -25 -4 6 2 19 14 31 15 15 16 20 5 20 -12 0 -13 9 -8 45 7 54 -3
57 -43 13 l-29 -33 34 30 34 30 -6 -39 c-4 -22 -12 -43 -19 -48 -10 -6 -10 -8
0 -8 15 0 12 -13 -13 -63 -21 -42 -41 -50 -39 -17 0 10 -3 17 -6 15 -4 -3 -16
5 -26 17 -12 14 -14 18 -4 13 13 -8 13 -6 2 7 -11 14 -10 18 5 28 16 10 16 10
-4 5 -13 -3 -30 -2 -38 3 -23 12 -1 29 45 35 33 4 33 4 -7 5 -33 2 -46 -3 -55
-18 -14 -22 -72 -28 -83 -10 -10 16 16 41 36 35 9 -3 20 -2 22 2 10 17 -40 12
-59 -5 -49 -42 -106 -56 -117 -28 -4 11 -16 13 -44 10 l-38 -6 35 31 c19 16
46 33 60 36 51 13 69 51 28 57 -13 2 -22 9 -21 16 2 6 -3 12 -10 12 -6 1 -25
18 -42 38 -29 37 -30 38 -92 34 -51 -4 -64 -1 -69 12 -3 9 -12 16 -20 16 -8 0
-14 7 -14 15 0 8 -6 15 -14 15 -7 0 -21 11 -30 25 -9 14 -23 25 -30 25 -7 0
-20 7 -27 16 -12 15 -3 16 106 10 66 -3 144 -10 174 -15 30 -6 60 -7 68 -3 7
5 46 2 86 -5 40 -7 84 -12 99 -13 20 0 38 -13 70 -51 24 -28 57 -57 73 -66 25
-13 28 -14 18 -1 -11 12 -6 15 32 15 27 1 45 -4 45 -11 0 -8 3 -8 8 0 11 16
40 24 44 12 2 -6 13 3 24 22 15 25 39 41 109 73 157 69 213 86 294 86 40 0 76
2 79 5 3 4 10 6 15 6 5 0 -8 -21 -29 -47z m-1408 -66 c-9 -23 -32 -60 -51 -81
-34 -39 -35 -39 -35 -13 0 41 18 79 58 120 42 43 52 34 28 -26z m1620 -22 c7
-48 0 -100 -19 -144 -11 -25 -11 -25 -16 19 -7 50 8 170 20 170 4 0 11 -20 15
-45z m-1647 -102 c-7 -21 -28 -60 -47 -88 l-35 -50 6 43 c3 27 20 66 43 100
39 60 54 57 33 -5z m1681 -57 c0 -42 -25 -132 -41 -150 -14 -16 -10 59 7 135
17 75 34 83 34 15z m-1696 -43 c-17 -77 -26 -101 -50 -138 l-25 -40 5 52 c5
52 25 103 54 136 21 23 23 22 16 -10z m1680 -201 c-24 -49 -28 -54 -32 -32 -4
26 9 77 36 137 l17 38 3 -43 c2 -31 -4 -59 -24 -100z m-1721 -68 l-28 -56 -3
47 c-2 36 3 61 25 104 l28 56 3 -48 c2 -37 -3 -61 -25 -103z m1753 12 c-7 -39
-36 -98 -70 -141 -16 -19 -16 -18 -11 20 8 51 65 176 78 168 5 -3 6 -24 3 -47z
m-1742 -143 c-9 -41 -21 -76 -26 -79 -4 -3 -8 25 -8 63 0 49 6 80 22 113 l22
45 4 -34 c2 -19 -4 -68 -14 -108z m1715 -31 c-24 -72 -87 -154 -73 -95 13 58
17 69 48 123 26 46 32 51 34 32 2 -12 -2 -39 -9 -60z m-1684 -87 c-3 -38 -9
-83 -14 -100 -7 -26 -9 -27 -14 -10 -16 57 -16 99 -1 167 16 68 18 71 26 43 5
-16 6 -61 3 -100z m1676 -32 c-6 -21 -31 -60 -56 -88 -37 -40 -45 -45 -39 -25
9 32 40 94 73 144 29 45 39 32 22 -31z m-1632 -163 c0 -30 -4 -64 -8 -75 -7
-16 -12 -9 -25 37 -16 55 -16 114 2 173 8 31 32 -69 31 -135z m1592 23 c-18
-36 -101 -126 -101 -110 0 32 110 181 118 159 2 -6 -6 -28 -17 -49z m-1547
-101 c9 -32 16 -80 16 -107 0 -42 -2 -47 -14 -35 -7 8 -18 30 -25 49 -13 40
-15 151 -2 151 4 0 16 -26 25 -58z m1520 -11 c-20 -51 -134 -158 -134 -125 0
23 137 181 147 170 2 -2 -4 -22 -13 -45z m-1459 -110 c27 -55 47 -169 26 -157
-23 15 -53 91 -58 148 -3 32 -3 58 0 58 4 0 18 -22 32 -49z m1385 -19 c0 -4
-11 -24 -25 -44 -26 -38 -111 -96 -122 -84 -4 4 23 36 60 71 63 61 87 76 87
57z m-1272 -180 l29 -83 -24 23 c-35 33 -62 90 -69 145 l-6 48 21 -25 c11 -14
33 -62 49 -108z m1202 59 c0 -31 -119 -111 -165 -110 -17 0 -14 5 15 30 19 17
60 43 90 59 64 34 60 32 60 21z m-1084 -173 c14 -27 21 -48 16 -48 -13 0 -79
73 -95 105 -8 17 -17 41 -21 55 -6 21 0 18 35 -20 22 -25 52 -66 65 -92z m957
32 c-34 -31 -128 -64 -165 -58 -21 3 -20 5 12 22 35 19 157 64 175 65 6 0 -5
-13 -22 -29z m-888 -47 c11 -10 33 -35 48 -56 21 -27 24 -37 13 -37 -30 0
-116 93 -116 125 0 7 30 -10 55 -32z m799 -24 c-14 -23 -90 -49 -146 -49 -104
0 -54 33 74 49 35 5 67 9 71 10 5 0 5 -4 1 -10z m-645 -57 c18 -15 47 -37 64
-49 l31 -23 -30 0 c-40 0 -120 56 -145 102 -9 16 -7 17 18 7 15 -6 43 -22 62
-37z m160 -40 l74 -37 -37 -3 c-43 -4 -111 26 -147 64 l-24 26 30 -7 c17 -4
63 -23 104 -43z m329 30 c17 -11 -28 -32 -70 -32 -46 0 -112 22 -96 32 17 10
149 10 166 0z m-178 -24 c62 -19 70 -23 50 -29 -47 -13 -101 -9 -140 11 -21
11 -41 24 -45 30 -11 17 56 11 135 -12z"/>
<path d="M4126 3103 c-6 -14 -5 -15 5 -6 7 7 10 15 7 18 -3 3 -9 -2 -12 -12z"/>
<path d="M3950 3060 c0 -5 5 -10 11 -10 5 0 7 5 4 10 -3 6 -8 10 -11 10 -2 0
-4 -4 -4 -10z"/>
<path d="M4095 3049 c-17 -8 -15 -8 8 -4 15 3 27 1 27 -5 0 -5 17 -9 38 -9 30
2 32 3 9 6 -15 2 -25 9 -22 14 8 12 -34 11 -60 -2z"/>
<path d="M3825 3000 c-4 -6 0 -10 8 -10 8 0 29 -3 47 -7 24 -4 31 -3 26 6 -4
6 -11 9 -16 6 -5 -3 -20 -1 -34 5 -16 6 -27 6 -31 0z"/>
<path d="M4097 3003 c-3 -5 20 -10 51 -11 31 -2 55 -1 52 1 -10 9 -98 18 -103
10z"/>
<path d="M3938 2913 c7 -3 16 -2 19 1 4 3 -2 6 -13 5 -11 0 -14 -3 -6 -6z"/>
<path d="M3942 2616 c1 -10 8 -17 13 -17 15 1 12 24 -3 29 -9 3 -13 -2 -10
-12z"/>
<path d="M4189 2558 c-8 -7 -12 -12 -10 -11 2 2 10 -2 18 -8 10 -9 13 -7 13
10 0 25 -1 25 -21 9z"/>
<path d="M3760 2526 c0 -2 7 -7 16 -10 8 -3 12 -2 9 4 -6 10 -25 14 -25 6z"/>
<path d="M4266 2474 c-5 -14 -4 -15 9 -4 17 14 19 20 6 20 -5 0 -12 -7 -15
-16z"/>
<path d="M3704 2436 c11 -9 24 -16 30 -16 12 0 7 5 -24 19 -24 11 -24 11 -6
-3z"/>
<path d="M3686 2375 c-3 -8 -1 -15 4 -15 13 0 22 18 11 24 -5 3 -11 -1 -15 -9z"/>
<path d="M3930 2356 c0 -8 7 -17 16 -20 14 -5 15 -4 5 8 -9 11 -9 15 1 19 8 4
7 6 -4 6 -10 1 -18 -5 -18 -13z"/>
<path d="M4012 2350 c0 -14 2 -19 5 -12 2 6 2 18 0 25 -3 6 -5 1 -5 -13z"/>
<path d="M4116 2362 c-2 -4 2 -16 10 -27 12 -16 14 -17 14 -2 0 9 -5 17 -11
17 -5 0 -7 5 -4 10 3 6 4 10 1 10 -3 0 -7 -3 -10 -8z"/>
<path d="M3880 2350 c0 -6 7 -13 16 -17 13 -5 13 -8 2 -15 -11 -8 -11 -9 0 -6
8 2 13 7 13 11 -1 4 -1 14 -1 22 0 8 -7 15 -15 15 -8 0 -15 -5 -15 -10z"/>
<path d="M4180 2341 c0 -7 -4 -10 -8 -7 -5 3 -9 -2 -9 -10 0 -13 2 -13 16 0 8
9 12 19 8 22 -4 4 -7 2 -7 -5z"/>
<path d="M4210 2346 c0 -2 7 -7 16 -10 8 -3 12 -2 9 4 -6 10 -25 14 -25 6z"/>
<path d="M3845 2330 c3 -5 1 -10 -4 -10 -6 0 -11 -5 -11 -11 0 -8 4 -9 13 0 8
6 18 7 23 3 4 -4 2 1 -5 11 -14 18 -26 24 -16 7z"/>
<path d="M3782 2316 c7 -8 15 -12 17 -11 5 6 -10 25 -20 25 -5 0 -4 -6 3 -14z"/>
<path d="M4327 2289 c4 -13 8 -18 11 -10 2 7 -1 18 -6 23 -8 8 -9 4 -5 -13z"/>
<path d="M4300 2226 c0 -2 7 -7 16 -10 8 -3 12 -2 9 4 -6 10 -25 14 -25 6z"/>
<path d="M3687 2206 c-4 -10 -1 -13 8 -9 8 3 12 9 9 14 -7 12 -11 11 -17 -5z"/>
<path d="M4266 2171 c-3 -5 1 -14 9 -21 13 -11 14 -10 9 5 -6 14 -4 16 6 10 9
-5 11 -4 6 3 -9 14 -23 15 -30 3z"/>
<path d="M4243 2117 c0 -8 6 -14 14 -14 9 0 10 4 2 14 -6 7 -12 13 -14 13 -1
0 -2 -6 -2 -13z"/>
<path d="M3730 2111 c0 -6 4 -13 10 -16 6 -3 7 1 4 9 -7 18 -14 21 -14 7z"/>
<path d="M3814 2082 c3 -5 0 -13 -6 -15 -9 -4 -10 -6 -1 -6 17 -1 25 16 12 25
-7 4 -9 3 -5 -4z"/>
<path d="M4190 2080 c-12 -8 -11 -10 7 -10 12 0 24 -6 26 -12 4 -8 6 -9 6 -2
2 19 -23 34 -39 24z"/>
<path d="M3787 2049 c7 -7 15 -10 18 -7 3 3 -2 9 -12 12 -14 6 -15 5 -6 -5z"/>
<path d="M3843 2041 c-11 -18 -8 -31 8 -31 5 0 13 10 20 21 6 13 7 19 1 15 -6
-3 -12 -2 -14 4 -2 6 -8 2 -15 -9z"/>
<path d="M4163 2025 c0 -8 4 -12 9 -9 5 3 6 10 3 15 -9 13 -12 11 -12 -6z"/>
<path d="M3309 4013 c-13 -16 -12 -17 4 -4 9 7 17 15 17 17 0 8 -8 3 -21 -13z"/>
<path d="M4800 4024 c0 -5 7 -19 15 -31 9 -13 11 -24 6 -28 -6 -3 -15 4 -21
16 -7 11 -14 18 -17 15 -3 -2 5 -19 17 -35 11 -17 24 -47 27 -67 l6 -37 -36 7
c-21 4 -37 4 -37 1 0 -3 9 -25 21 -48 28 -56 96 -116 132 -117 16 0 37 -4 47
-10 13 -7 19 -6 24 5 3 9 12 12 23 8 10 -3 15 -3 11 2 -4 4 0 21 8 36 26 51
10 143 -39 222 -33 54 -46 52 -54 -12 -3 -22 -8 -41 -10 -41 -18 0 -64 39 -91
78 -18 25 -32 42 -32 36z m184 -100 c4 -16 12 -37 17 -46 12 -24 11 -78 -1
-78 -5 0 -10 7 -10 15 0 8 -10 25 -21 36 -17 17 -19 23 -8 30 11 6 11 11 1 21
-16 16 -16 61 1 56 6 -3 16 -18 21 -34z m-71 -42 c18 -16 24 -52 7 -52 -5 0
-14 9 -20 20 -6 11 -16 20 -22 20 -6 0 -2 -10 9 -22 18 -21 73 -114 73 -125 0
-2 -9 1 -20 7 -11 6 -20 17 -20 24 0 7 -11 18 -25 24 -14 6 -25 16 -25 22 0 6
5 8 10 5 6 -3 10 -2 10 4 0 5 -8 12 -19 16 -18 5 -31 43 -31 86 0 19 1 19 28
2 15 -9 35 -23 45 -31z m54 -88 c5 -37 5 -38 -10 -19 -18 22 -24 86 -7 69 6
-6 13 -28 17 -50z m-142 30 c8 -4 23 -20 31 -36 14 -28 14 -29 -2 -26 -10 2
-26 18 -37 36 -20 33 -19 36 8 26z m195 -53 c0 -5 -7 -14 -15 -21 -13 -10 -15
-9 -15 9 0 12 6 21 15 21 8 0 15 -4 15 -9z m-120 -36 c14 -16 10 -18 -14 -9
-9 3 -16 10 -16 15 0 14 16 11 30 -6z"/>
<path d="M3052 3802 c-11 -9 -28 -30 -37 -47 l-18 -30 27 33 c32 38 61 44 51
10 -5 -18 -4 -20 4 -8 13 18 14 47 2 54 -5 3 -18 -2 -29 -12z"/>
<path d="M2928 3732 c-101 -224 -92 -192 -98 -364 -3 -105 -9 -161 -18 -170
-9 -9 -12 1 -13 53 0 35 -4 87 -7 114 l-7 50 -23 -97 c-12 -53 -22 -126 -22
-161 0 -66 25 -218 40 -247 5 -9 3 -23 -6 -35 -8 -10 -14 -16 -14 -13 0 21
-33 176 -41 190 -11 20 -106 78 -127 78 -11 0 -12 -10 -6 -42 4 -24 10 -79 13
-123 l7 -80 8 93 c9 112 21 115 56 16 14 -38 37 -91 53 -116 20 -34 28 -65 32
-114 3 -37 10 -73 16 -80 9 -10 9 -14 0 -14 -6 0 -11 -12 -12 -27 -1 -25 -3
-24 -21 17 -24 52 -35 62 -63 53 -31 -9 -35 -21 -35 -123 0 -82 -28 -320 -45
-384 -4 -14 -1 -12 10 7 21 36 59 187 76 295 7 45 16 82 20 82 5 0 27 -32 50
-70 23 -39 48 -74 56 -79 13 -7 13 -9 -1 -14 -9 -4 -16 -14 -16 -24 -1 -14 -7
-11 -29 13 -16 18 -33 40 -39 50 -16 28 -23 12 -12 -27 6 -18 10 -50 11 -69 0
-31 1 -32 9 -12 5 12 13 22 18 22 20 0 50 -48 56 -90 4 -25 17 -65 29 -90 19
-40 25 -45 52 -43 l30 3 -25 -12 c-14 -7 -28 -16 -31 -20 -11 -16 -37 28 -48
82 -7 32 -23 69 -39 88 l-27 33 -38 -91 c-35 -81 -37 -94 -27 -124 6 -19 11
-81 12 -138 0 -126 17 -103 26 37 6 101 22 141 52 125 38 -20 130 -113 130
-131 0 -25 -2 -24 -72 11 -32 16 -61 30 -63 30 -3 0 16 -31 41 -70 38 -57 52
-70 73 -70 19 0 30 -9 41 -33 14 -30 39 -51 110 -90 18 -10 31 -20 28 -22 -12
-12 -95 29 -134 65 -24 22 -48 40 -54 40 -6 0 -31 19 -55 41 -25 23 -45 39
-45 35 0 -4 11 -28 24 -54 13 -26 29 -64 35 -85 15 -44 35 -57 88 -57 21 0 69
-9 107 -19 57 -16 77 -28 120 -70 81 -80 135 -66 100 25 -11 30 -13 47 -6 60
9 16 12 15 36 -9 14 -14 26 -35 26 -45 0 -11 7 -38 15 -61 l14 -41 -29 15
c-26 13 -30 13 -51 -4 -31 -25 -70 -12 -129 45 -51 50 -97 61 -86 22 3 -13 6
-36 6 -53 1 -28 2 -29 15 -12 13 18 15 18 57 -6 24 -14 61 -28 84 -32 30 -5
52 -18 83 -49 l41 -42 -46 -3 c-26 -1 -56 -7 -66 -12 -15 -8 -31 -3 -76 22
-85 49 -191 121 -252 173 -29 25 -55 44 -57 42 -3 -2 17 -52 42 -111 26 -59
44 -109 41 -112 -3 -3 -48 -8 -101 -11 -52 -2 -95 -7 -95 -11 0 -9 161 -121
238 -164 37 -22 110 -57 162 -78 139 -58 400 -191 394 -201 -3 -5 -32 -22 -65
-38 -39 -20 -59 -36 -59 -48 0 -27 8 -31 41 -19 21 9 34 9 47 1 13 -9 31 -4
85 23 l68 34 36 -22 c31 -20 43 -21 121 -15 l87 6 55 55 56 55 22 -27 c12 -16
-12 30 -54 100 -56 95 -88 138 -124 166 l-48 38 79 33 c62 25 87 31 116 26 27
-5 34 -4 23 3 -27 19 -70 12 -157 -26 l-85 -36 -36 22 c-20 12 -58 32 -84 44
-26 12 -52 33 -59 47 -29 61 -39 91 -29 85 10 -6 110 -24 110 -19 0 1 -29 16
-65 33 -61 28 -68 35 -90 85 -21 48 -51 88 -41 54 3 -7 7 -26 11 -42 l6 -28
-27 21 c-38 30 -44 27 -45 -26 l-1 -48 -29 60 c-30 63 -40 110 -17 87 7 -7 19
-12 28 -12 8 0 1 9 -18 21 -26 17 -36 34 -53 90 -12 38 -23 69 -26 69 -3 0 -3
-21 0 -47 l5 -48 -36 41 c-44 49 -72 49 -72 1 l0 -32 -53 58 c-54 60 -70 67
-102 43 -17 -12 -18 -17 -7 -40 11 -24 10 -26 -6 -17 -26 14 -59 53 -67 81
l-7 25 24 -22 c27 -26 48 -29 66 -11 18 18 15 37 -16 103 -20 43 -26 67 -21
85 14 49 9 116 -16 208 -14 51 -32 105 -40 120 -14 26 -15 24 -9 -35 4 -34 3
-92 -1 -130 l-8 -68 -14 80 c-16 93 -27 227 -21 270 l4 30 17 -35 17 -35 -4
31 c-3 17 -8 55 -11 85 -9 76 -14 99 -24 99 -15 0 -31 -51 -32 -103 l-1 -52
-14 60 c-8 33 -14 65 -14 70 1 6 3 51 5 100 l2 90 -6 -77 c-3 -42 -9 -80 -13
-84 -5 -4 -8 -2 -8 5 0 7 -4 10 -9 7 -14 -9 -23 47 -15 91 13 73 23 70 24 -6
0 -98 8 -87 11 17 3 70 6 82 20 82 27 0 46 -26 54 -70 7 -39 53 -135 61 -127
2 2 -3 29 -11 61 -8 31 -15 90 -15 131 0 41 -5 77 -10 80 -6 3 -22 -3 -36 -14
-38 -30 -44 -27 -44 27 1 49 55 192 77 199 7 3 15 -28 23 -84 17 -133 29 -188
45 -209 12 -15 11 -10 -1 21 -14 34 -16 66 -10 223 5 123 4 182 -3 182 -6 0
-29 -18 -52 -40 -23 -22 -43 -40 -45 -40 -1 0 -5 12 -8 26 -7 27 23 164 36
164 3 0 9 -10 11 -22 4 -20 4 -19 6 5 0 15 -3 27 -9 27 -5 0 -10 5 -10 11 0 5
4 8 9 5 8 -5 42 27 56 54 4 8 -4 2 -17 -14 -30 -36 -46 -20 -27 27 26 64 51
99 60 85 7 -10 9 -10 9 2 0 13 1 13 10 0 8 -13 10 -12 10 3 0 28 -29 32 -56 7
-13 -13 -24 -21 -24 -18 0 4 7 41 15 84 8 43 14 79 12 80 -1 1 -10 -14 -19
-34z m-34 -205 c-32 -152 -43 -179 -43 -112 0 28 4 70 10 94 10 45 49 144 55
139 1 -2 -8 -56 -22 -121z m-111 -417 c-4 -50 -9 -68 -14 -55 -10 26 -11 159
-2 221 l8 49 7 -70 c4 -38 4 -104 1 -145z m170 72 l-9 -77 -13 78 c-10 63 -10
81 0 93 23 27 31 -10 22 -94z m-97 6 l-6 -43 14 38 c16 44 23 53 33 44 3 -4
-4 -30 -17 -58 -14 -28 -26 -45 -29 -38 -2 8 -10 -4 -17 -26 l-14 -40 5 63 c4
58 18 102 31 102 3 0 3 -19 0 -42z m-174 -120 c16 -13 45 -125 35 -134 -3 -3
-12 16 -22 43 -9 26 -23 60 -30 76 -15 29 -9 35 17 15z m148 -18 c0 -5 -7 -10
-15 -10 -8 0 -15 5 -15 10 0 6 7 10 15 10 8 0 15 -4 15 -10z m-10 -79 c0 -47
-12 -72 -24 -52 -8 13 5 101 15 101 5 0 9 -22 9 -49z m80 -53 c0 -18 2 -51 5
-73 5 -40 5 -39 -9 8 -8 26 -20 55 -27 63 -10 13 -10 17 2 25 24 15 29 10 29
-23z m-171 -282 c44 -92 38 -102 -13 -21 -25 38 -42 73 -40 77 12 18 25 4 53
-56z m90 -28 c20 -110 21 -116 5 -129 -8 -6 -16 -10 -18 -8 -8 9 -26 113 -26
149 0 61 26 53 39 -12z m67 36 c-3 -9 -6 -25 -6 -35 0 -11 -4 -17 -10 -14 -11
7 -14 48 -3 58 12 13 25 7 19 -9z m-215 -109 c-7 -47 -15 -85 -16 -83 -2 2 -1
45 2 96 4 64 9 90 16 83 7 -7 6 -38 -2 -96z m189 -90 c0 -8 -4 -15 -9 -15 -13
0 -22 16 -14 24 11 11 23 6 23 -9z m8 -97 c26 -83 38 -173 23 -164 -6 4 -11
14 -11 23 0 24 -41 195 -46 190 -3 -2 5 -42 16 -88 11 -46 20 -95 19 -109 -1
-42 -37 52 -49 127 -9 52 -8 68 2 74 23 15 27 10 46 -53z m-74 -142 l6 -50
-30 29 c-29 28 -37 56 -24 90 12 29 41 -14 48 -69z m171 -121 c-29 -108 -37
-100 -31 28 3 65 9 123 13 130 4 6 13 -12 21 -43 12 -48 12 -62 -3 -115z
m-235 86 c0 -5 -7 -14 -15 -21 -13 -10 -15 -9 -15 9 0 12 6 21 15 21 8 0 15
-4 15 -9z m180 -71 c0 -32 -14 -40 -24 -14 -10 27 -7 44 9 44 10 0 15 -10 15
-30z m106 -145 c8 -19 10 -35 6 -35 -12 0 -62 97 -55 104 8 8 30 -24 49 -69z
m-36 4 c29 -55 20 -72 -12 -25 -15 21 -24 45 -21 52 8 20 11 18 33 -27z m-115
14 c36 -17 46 -33 21 -33 -15 0 -77 49 -64 50 4 0 23 -8 43 -17z m40 -165 c18
-27 13 -32 -19 -24 -17 4 -31 19 -41 42 -8 20 -15 38 -15 41 0 9 60 -39 75
-59z m217 5 c57 -62 123 -151 115 -159 -7 -7 -156 154 -173 187 -23 45 -2 35
58 -28z m-20 -38 c26 -33 64 -78 87 -99 22 -22 38 -43 34 -49 -12 -20 -143
126 -169 190 -18 44 -14 40 48 -42z m112 29 c3 -9 6 -28 6 -42 -1 -31 -13 -15
-24 31 -7 29 8 38 18 11z m-123 -309 c63 -37 100 -53 114 -49 12 3 16 2 8 -3
-8 -6 10 -18 55 -37 103 -44 702 -348 702 -357 0 -4 -25 -30 -56 -57 -43 -39
-65 -51 -101 -56 -100 -13 -109 -11 -328 104 -115 60 -246 124 -290 141 -160
64 -335 162 -445 249 l-25 20 50 0 c28 0 73 3 102 6 l51 7 -35 81 c-19 44 -39
91 -44 104 -6 17 11 7 70 -38 44 -33 121 -85 172 -115z m9 150 c13 -14 20 -25
16 -25 -12 0 -56 32 -56 41 0 16 16 10 40 -16z m265 -101 c65 -45 141 -121
113 -111 -26 9 -198 147 -198 158 0 12 8 8 85 -47z m99 37 l30 -20 -37 2 c-28
2 -37 6 -37 20 0 22 8 21 44 -2z m-92 -85 c54 -44 95 -83 92 -88 -8 -13 -204
145 -204 164 0 15 9 9 112 -76z m98 28 c16 -41 12 -47 -20 -24 -25 18 -28 25
-19 36 17 21 28 17 39 -12z m52 -45 c16 -48 16 -51 -3 -70 -10 -10 -19 -25
-19 -33 0 -34 163 -136 217 -136 26 0 35 -11 23 -29 -11 -18 -52 -2 -225 88
-71 37 -161 80 -198 96 -74 31 -74 45 3 45 31 0 56 -7 80 -23 54 -36 68 -39
91 -16 15 15 19 28 14 46 -14 59 -17 83 -8 83 5 0 16 -23 25 -51z m70 -103
c73 -32 164 -89 151 -93 -15 -5 -172 69 -203 95 -33 28 -15 27 52 -2z m-13
-34 c25 -16 73 -39 105 -53 46 -18 54 -25 37 -27 -26 -4 -131 45 -176 82 -40
34 -23 33 34 -2z m198 -77 c-4 -8 -11 -15 -17 -15 -7 0 -7 6 0 21 13 23 26 19
17 -6z m44 -5 c10 -6 19 -15 19 -21 0 -6 -8 -6 -21 1 -11 7 -23 9 -27 6 -3 -3
-1 -6 4 -6 14 0 77 -41 71 -46 -6 -7 -73 21 -81 34 -6 10 2 42 11 42 2 0 13
-5 24 -10z m17 -79 c48 -24 52 -29 37 -41 -13 -11 -23 -10 -65 10 -47 22 -59
37 -43 53 9 10 12 9 71 -22z m-286 -243 c-38 -22 -58 -27 -74 -22 -26 9 -23 9
-60 0 -43 -10 -35 19 10 37 20 9 51 25 67 35 30 19 31 19 69 0 l39 -20 -51
-30z"/>
<path d="M2802 2570 c0 -14 2 -19 5 -12 2 6 2 18 0 25 -3 6 -5 1 -5 -13z"/>
<path d="M2812 2510 c0 -19 2 -27 5 -17 2 9 2 25 0 35 -3 9 -5 1 -5 -18z"/>
<path d="M3010 1464 c0 -23 -41 -94 -54 -94 -6 0 -4 -4 4 -10 10 -6 18 -1 28
21 11 22 18 27 27 19 9 -8 14 -6 18 4 4 10 1 13 -9 9 -18 -7 -18 7 1 34 13 19
13 22 0 27 -9 3 -15 -1 -15 -10z"/>
<path d="M3058 1434 c2 -13 8 -21 13 -18 14 8 11 31 -4 37 -10 4 -13 -2 -9
-19z"/>
<path d="M3109 1394 c-11 -13 -10 -21 5 -49 19 -35 15 -55 -10 -55 -13 0 -19
18 -15 45 1 6 -5 1 -14 -9 -13 -17 -13 -21 3 -32 22 -17 45 -17 60 -2 16 16
15 43 -3 58 -8 7 -15 21 -15 31 0 26 31 24 37 -2 4 -15 8 -17 14 -8 4 8 1 18
-9 26 -23 17 -37 16 -53 -3z"/>
<path d="M3196 1363 c-9 -23 -7 -28 6 -15 7 7 18 12 26 12 9 0 4 -17 -17 -57
-24 -43 -28 -59 -19 -65 9 -5 15 1 19 20 3 15 13 42 23 60 9 18 14 36 12 41
-10 16 -45 19 -50 4z"/>
<path d="M3020 1345 c-8 -9 -8 -15 -2 -15 12 0 26 19 19 26 -2 2 -10 -2 -17
-11z"/>
<path d="M3260 1323 c0 -22 2 -25 10 -13 13 20 13 40 0 40 -5 0 -10 -12 -10
-27z"/>
<path d="M3303 1261 c-39 -44 -45 -61 -21 -61 5 0 7 3 4 8 -2 4 9 23 25 42 18
23 29 29 29 19 0 -9 -3 -19 -7 -22 -10 -11 -9 -66 2 -71 6 -2 11 17 12 43 1
25 5 56 8 69 8 32 -5 26 -52 -27z"/>
<path d="M3407 1214 c-32 -64 -31 -60 -13 -67 10 -4 13 -1 10 8 -7 16 31 92
48 97 8 3 7 6 -3 10 -12 5 -23 -9 -42 -48z"/>
<path d="M3474 1212 c0 -25 -8 -42 -28 -59 -15 -12 -22 -23 -16 -23 23 0 60
49 60 79 0 43 -15 46 -16 3z"/>
<path d="M3517 1183 c-34 -39 -29 -113 9 -113 26 0 64 50 64 86 0 18 -4 35 -9
38 -4 3 -6 -5 -4 -17 5 -23 -35 -92 -52 -92 -6 0 -11 14 -13 31 -2 21 4 38 22
57 15 16 20 27 12 27 -7 0 -20 -8 -29 -17z"/>
<path d="M3717 1100 c-4 -17 -10 -20 -27 -15 -28 9 -50 -11 -50 -45 0 -20 6
-29 22 -33 12 -4 23 -5 23 -4 0 1 12 26 25 54 13 29 21 55 18 58 -3 3 -8 -4
-11 -15z m-27 -39 c0 -20 -27 -48 -37 -37 -9 8 14 56 27 56 5 0 10 -8 10 -19z"/>
<path d="M3725 1037 c-18 -28 -11 -57 15 -57 24 0 42 24 38 52 -4 31 -33 34
-53 5z m45 2 c0 -17 -20 -49 -30 -49 -14 0 -12 34 2 48 15 15 28 15 28 1z"/>
<path d="M3116 3729 c-47 -35 -72 -39 -56 -9 18 33 3 22 -20 -14 -23 -39 -55
-40 -45 -2 4 14 1 12 -11 -8 -21 -37 -8 -46 61 -45 49 0 51 1 87 54 20 30 34
55 30 54 -4 0 -25 -14 -46 -30z m-16 -44 c-7 -8 -24 -15 -39 -15 -25 1 -25 1
9 20 39 20 50 19 30 -5z"/>
<path d="M5050 3627 c0 -4 7 -22 16 -38 8 -17 14 -33 12 -35 -7 -6 -48 36 -48
48 0 6 -2 9 -5 6 -3 -3 1 -19 8 -36 18 -43 11 -106 -12 -97 -28 12 -111 22
-111 15 0 -29 78 -160 95 -160 7 0 18 -6 24 -14 14 -17 94 -28 123 -17 13 5
27 9 31 9 5 0 22 13 39 29 29 27 30 30 24 98 -4 51 -13 85 -34 123 l-29 53
-25 -56 c-23 -51 -26 -54 -40 -38 -9 10 -27 41 -41 68 -15 28 -26 46 -27 42z
m140 -98 c0 -12 4 -18 11 -13 9 5 10 -4 5 -31 -5 -24 -4 -35 3 -31 17 11 24
-15 10 -40 -16 -31 -29 -31 -29 0 0 13 -7 29 -15 36 -18 15 -20 40 -3 40 9 0
9 3 1 11 -12 12 -6 49 8 49 5 0 9 -9 9 -21z m-79 -41 c8 -16 8 -22 -2 -28 -9
-6 -7 -20 10 -60 12 -29 20 -54 17 -57 -6 -7 -66 36 -66 47 0 5 5 10 12 12 8
3 7 11 -5 28 -9 14 -17 42 -17 63 0 34 2 37 20 27 11 -6 25 -20 31 -32z m-104
-55 c20 -30 13 -36 -23 -23 -29 12 -44 26 -44 46 0 20 50 3 67 -23z m153 -25
c0 -14 4 -28 10 -30 5 -2 6 -9 1 -17 -13 -20 -54 63 -46 90 7 20 7 20 21 2 7
-10 14 -30 14 -45z m-110 -12 c0 -7 9 -25 21 -40 l20 -26 -28 0 c-21 0 -24 3
-13 10 13 8 13 10 0 14 -8 3 -24 6 -34 8 -11 2 -22 10 -24 18 -4 12 -3 13 10
2 13 -10 16 -9 21 8 6 22 27 28 27 6z m160 -37 c-7 -11 -14 -19 -16 -16 -7 7
7 37 17 37 6 0 5 -9 -1 -21z"/>
<path d="M3014 3538 c-4 -7 -15 -24 -23 -38 -9 -13 -11 -21 -4 -17 9 5 11 -3
7 -30 -4 -37 -4 -37 9 7 7 25 17 55 21 68 8 24 2 30 -10 10z"/>
<path d="M2955 3440 c-9 -16 -13 -30 -11 -30 3 0 12 14 21 30 9 17 13 30 11
30 -3 0 -12 -13 -21 -30z"/>
<path d="M2952 3372 c-30 -33 -32 -35 -27 -12 6 23 5 24 -9 7 -13 -16 -15 -17
-18 -2 -1 9 -10 -9 -19 -40 -15 -52 -15 -55 0 -41 89 81 113 105 110 114 -2 6
-19 -6 -37 -26z"/>
<path d="M5166 3225 c3 -11 11 -49 19 -84 12 -57 11 -67 -5 -103 -10 -23 -21
-35 -25 -29 -3 6 -24 20 -46 31 l-39 20 0 -47 c0 -68 20 -125 55 -160 36 -36
90 -50 103 -27 7 13 13 14 31 4 13 -6 20 -17 18 -25 -8 -20 39 7 91 53 l44 37
-11 94 c-6 52 -14 98 -19 103 -6 6 -23 -9 -42 -36 -35 -48 -50 -57 -50 -30 0
9 -9 27 -19 40 -11 14 -27 58 -37 99 -10 41 -21 75 -24 75 -4 0 0 -25 8 -55
14 -50 14 -57 0 -71 -14 -14 -16 -12 -22 28 -4 23 -14 57 -22 73 -8 17 -12 21
-8 10z m89 -214 c-5 -28 -4 -33 9 -28 11 5 16 1 16 -13 0 -26 -19 -35 -33 -16
-10 13 -11 4 -9 -45 4 -59 3 -60 -17 -49 -22 11 -28 30 -11 30 6 0 4 13 -5 30
-20 39 -20 56 2 39 15 -13 15 -12 5 8 -7 12 -12 30 -12 40 0 15 2 16 11 3 8
-12 9 -10 4 8 -3 12 -3 31 0 43 7 20 8 20 27 3 15 -14 18 -26 13 -53z m125 13
c0 -14 -5 -35 -11 -47 -9 -16 -9 -22 0 -25 6 -2 11 -14 11 -28 0 -17 -7 -25
-25 -30 -13 -3 -23 -10 -22 -16 1 -5 -9 -17 -23 -26 -23 -16 -22 -13 8 27 35
49 40 63 17 55 -9 -4 -15 0 -15 10 0 9 5 16 10 16 6 0 10 11 10 25 0 26 19 65
32 65 5 0 8 -12 8 -26z m-254 -41 c5 -18 9 -21 15 -12 10 17 17 10 29 -31 9
-32 9 -32 -10 -15 -19 17 -20 17 -20 1 0 -10 -6 -16 -12 -13 -7 2 -12 12 -10
21 2 9 -4 19 -13 22 -9 4 -15 18 -15 35 0 35 27 30 36 -8z m174 -54 c0 -17
-20 -49 -30 -49 -14 0 -12 34 2 48 15 15 28 15 28 1z m-132 -41 c21 -21 13
-28 -15 -16 -42 18 -50 28 -22 28 14 0 30 -5 37 -12z"/>
<path d="M5232 2699 c-2 -64 -6 -83 -28 -115 -15 -21 -28 -40 -29 -42 -2 -2
-20 5 -42 16 -21 11 -48 23 -61 27 -22 6 -23 5 -16 -32 3 -21 10 -42 15 -48 5
-5 9 -20 9 -33 0 -41 37 -94 83 -118 15 -8 32 -12 38 -8 6 4 15 1 19 -7 11
-17 80 14 120 54 28 29 70 131 70 171 0 19 -1 19 -23 -2 -31 -30 -88 -46 -99
-29 -4 6 -8 44 -9 82 -1 54 -3 63 -9 40 -4 -16 -8 -22 -9 -12 0 10 -5 16 -11
12 -5 -3 -11 21 -13 57 l-3 63 -2 -76z m24 -130 c-4 -24 -3 -38 3 -35 10 7 21
-16 21 -45 0 -11 -8 -32 -17 -46 -17 -26 -17 -27 0 -20 22 8 22 -6 0 -25 -31
-26 -41 -29 -38 -11 2 10 6 43 9 73 4 47 3 52 -8 38 -12 -16 -14 -16 -25 9
-10 22 -9 31 14 64 34 52 49 51 41 -2z m-141 -34 c14 -13 25 -20 25 -14 0 6 5
7 10 4 6 -3 10 -18 10 -32 0 -23 -2 -24 -17 -12 -15 12 -16 12 -9 -6 5 -11 11
-30 13 -43 3 -12 9 -25 14 -28 5 -3 9 -10 9 -15 0 -5 -14 0 -30 13 -20 14 -28
28 -25 39 3 10 -1 19 -11 23 -12 5 -13 10 -6 19 8 10 6 17 -8 27 -21 15 -27
50 -10 50 6 0 22 -11 35 -25z m264 -33 c-6 -17 -19 -34 -30 -37 -10 -4 -19
-10 -19 -15 0 -5 7 -7 15 -4 25 10 17 -5 -12 -20 -16 -9 -21 -15 -13 -16 13 0
13 -1 0 -10 -25 -16 -28 -12 -22 38 5 52 20 81 33 61 5 -8 14 -3 30 15 28 32
32 29 18 -12z m-166 -85 c-3 -15 -11 -26 -17 -24 -13 4 -20 61 -11 85 10 27
34 -27 28 -61z"/>
<path d="M5125 2200 c-3 -11 -27 -39 -53 -64 l-46 -44 -39 39 c-22 21 -43 39
-47 39 -11 0 -21 -58 -14 -84 3 -13 12 -23 19 -23 10 0 11 5 4 18 -5 10 -9 30
-9 45 0 22 2 25 15 14 8 -7 15 -23 15 -35 0 -16 6 -22 18 -21 11 1 15 -4 13
-14 -3 -8 -4 -31 -4 -50 1 -33 1 -34 -9 -10 -14 35 -23 7 -9 -30 11 -33 1 -39
-24 -14 -10 11 -13 19 -6 23 6 4 3 18 -10 36 l-21 30 6 -34 c3 -18 6 -39 6
-45 0 -7 10 -23 21 -35 16 -16 24 -20 29 -11 9 15 45 -2 54 -25 9 -24 98 -20
121 5 10 11 24 20 31 20 29 0 126 121 110 137 -3 3 -35 0 -72 -6 -36 -7 -69
-9 -72 -6 -3 3 -1 23 5 45 12 47 6 90 -13 90 -8 0 -11 6 -8 15 4 8 4 15 1 15
-3 0 -8 -9 -12 -20z m15 -62 c0 -12 -8 -30 -17 -41 -17 -19 -17 -20 0 -14 26
10 21 -13 -10 -45 -20 -21 -23 -28 -11 -28 23 0 11 -38 -19 -57 -13 -9 -26
-14 -28 -11 -2 2 2 28 10 58 8 30 12 56 10 59 -3 2 -5 -1 -5 -7 0 -7 -5 -12
-11 -12 -6 0 -9 12 -7 28 2 19 8 27 21 26 9 -1 17 5 17 14 0 17 28 52 42 52 4
0 8 -10 8 -22z m-90 -125 c0 -6 -5 -24 -11 -40 -8 -22 -12 -24 -19 -13 -13 20
-12 33 1 24 8 -4 7 0 -1 15 -6 12 -8 31 -5 42 7 20 7 20 21 2 7 -10 14 -23 14
-30z m210 7 c-12 -17 -30 -30 -42 -30 -16 0 -18 -3 -9 -14 14 -16 8 -21 -37
-31 -18 -3 -30 -10 -27 -15 6 -10 -24 -17 -48 -12 -15 3 -6 12 35 39 50 34 90
65 60 48 -10 -5 -13 -2 -10 11 2 14 12 19 35 20 18 0 36 3 39 7 20 20 23 3 4
-23z m-100 -10 c0 -11 -4 -20 -10 -20 -5 0 -10 9 -10 20 0 11 5 20 10 20 6 0
10 -9 10 -20z"/>
<path d="M4678 1822 c-7 -9 -24 -39 -37 -65 -23 -48 -23 -49 -3 -67 20 -19 20
-19 15 23 -5 40 -4 41 10 22 15 -19 16 -18 11 15 -4 25 -1 40 9 49 14 11 17 8
22 -23 4 -19 4 -39 0 -45 -3 -7 0 -8 9 -5 19 7 20 -6 5 -78 -17 -81 -20 -86
-29 -63 -5 11 -9 40 -10 65 l-2 45 -8 -39 c-4 -21 -5 -47 -3 -58 8 -27 -12
-22 -25 7 -15 32 -15 38 -2 30 16 -10 12 21 -5 35 -13 11 -15 7 -15 -28 0 -22
5 -53 11 -69 8 -22 12 -25 20 -13 8 11 12 12 16 3 2 -7 10 -13 17 -13 6 0 17
-13 23 -29 19 -51 84 -70 193 -57 34 4 98 27 112 41 11 12 -34 43 -96 66 -50
20 -55 24 -43 38 8 9 24 39 36 66 12 28 27 58 32 68 6 11 6 17 -1 17 -14 0
-12 53 3 70 6 7 -6 -1 -28 -18 -22 -18 -44 -32 -50 -32 -6 0 -33 -14 -59 -30
-26 -17 -51 -28 -56 -25 -5 3 -16 28 -25 55 -19 58 -27 66 -47 42z m242 -63
c0 -20 -10 -40 -29 -60 -18 -18 -24 -29 -15 -29 26 0 14 -19 -23 -39 -28 -15
-33 -20 -18 -21 19 -1 19 -2 -4 -20 -13 -11 -36 -20 -52 -20 l-29 0 45 58 c49
62 59 89 20 52 l-25 -23 0 31 c0 36 29 59 48 40 9 -9 12 -8 12 5 0 13 52 57
68 57 1 0 2 -14 2 -31z m-169 -155 c-20 -25 -21 -25 -21 -6 0 12 4 31 9 44 5
13 13 32 17 43 7 16 9 13 12 -18 2 -26 -3 -45 -17 -63z m123 -49 c-5 -12 0
-14 27 -8 28 5 31 4 26 -11 -5 -13 -3 -16 11 -12 10 4 26 0 37 -8 17 -12 15
-14 -19 -20 -20 -4 -46 -4 -58 0 -13 4 -18 2 -14 -4 11 -19 -32 -24 -59 -6
-15 10 -25 12 -25 5 0 -16 -35 -14 -49 3 -17 20 6 26 73 19 39 -4 56 -2 56 6
0 6 -16 11 -38 11 -50 0 -60 11 -25 26 40 18 64 17 57 -1z"/>
<path d="M4964 1788 l-19 -23 23 19 c12 11 22 21 22 23 0 8 -8 2 -26 -19z"/>
<path d="M5369 1582 c-14 -12 -18 -21 -11 -26 6 -3 13 -2 17 4 3 5 3 10 -1 10
-4 0 1 7 12 15 10 8 16 15 13 15 -4 0 -17 -8 -30 -18z"/>
<path d="M4584 1478 l-19 -23 23 19 c21 18 27 26 19 26 -2 0 -12 -10 -23 -22z"/>
<path d="M4534 1438 l-19 -23 23 19 c21 18 27 26 19 26 -2 0 -12 -10 -23 -22z"/>
<path d="M4605 1430 c-30 -31 -89 -42 -97 -19 -2 7 -8 6 -16 -4 -10 -12 -3
-15 54 -21 37 -4 69 -4 72 -1 3 3 -5 5 -18 5 -23 0 -23 1 10 35 19 19 32 35
29 35 -3 0 -18 -13 -34 -30z"/>
<path d="M4958 1403 c7 -3 16 -2 19 1 4 3 -2 6 -13 5 -11 0 -14 -3 -6 -6z"/>
<path d="M4908 1393 c7 -3 16 -2 19 1 4 3 -2 6 -13 5 -11 0 -14 -3 -6 -6z"/>
<path d="M5112 1388 c-27 -27 -10 -98 29 -118 29 -16 49 4 49 49 0 62 -45 102
-78 69z m54 -33 c17 -42 18 -71 2 -81 -19 -12 -48 35 -48 77 0 50 25 53 46 4z"/>
<path d="M4813 1383 c9 -2 25 -2 35 0 9 3 1 5 -18 5 -19 0 -27 -2 -17 -5z"/>
<path d="M4308 1344 c4 -23 2 -25 -16 -20 -15 5 -24 1 -32 -14 -18 -33 -8 -63
21 -71 26 -7 27 -6 34 55 8 75 8 70 -3 74 -5 1 -7 -9 -4 -24z m-8 -52 c0 -9
-5 -24 -10 -32 -7 -12 -12 -12 -21 -3 -10 10 -10 18 -1 38 13 28 32 25 32 -3z"/>
<path d="M4985 1360 c-11 -5 -15 -9 -8 -9 12 -1 24 -41 25 -90 1 -33 5 -36 28
-21 10 6 11 10 3 10 -7 0 -13 11 -13 25 0 14 5 25 10 25 6 0 15 -11 20 -25 10
-27 40 -34 40 -9 0 8 -4 13 -9 10 -12 -8 -24 22 -25 59 -1 25 -6 30 -26 32
-14 1 -34 -2 -45 -7z m55 -25 c0 -16 -6 -25 -15 -25 -9 0 -15 9 -15 25 0 16 6
25 15 25 9 0 15 -9 15 -25z"/>
<path d="M5288 1353 c7 -3 16 -2 19 1 4 3 -2 6 -13 5 -11 0 -14 -3 -6 -6z"/>
<path d="M4899 1336 c7 -8 13 -39 14 -69 2 -46 5 -53 20 -49 12 3 14 8 8 16
-12 14 -17 88 -7 104 5 8 -1 12 -20 12 -22 0 -24 -3 -15 -14z"/>
<path d="M5348 1343 c6 -2 18 -2 25 0 6 3 1 5 -13 5 -14 0 -19 -2 -12 -5z"/>
<path d="M5514 1334 c-18 -14 -18 -15 4 -4 12 6 22 13 22 15 0 8 -5 6 -26 -11z"/>
<path d="M4488 1305 c2 -19 -1 -48 -6 -65 -6 -16 -7 -30 -3 -30 13 0 21 27 21
69 0 20 5 42 12 49 9 9 8 12 -8 12 -17 0 -19 -5 -16 -35z"/>
<path d="M4829 1331 c7 -5 17 -15 22 -22 6 -10 9 -8 9 9 0 16 -6 22 -22 22
-17 0 -19 -3 -9 -9z"/>
<path d="M5448 1333 c6 -2 18 -2 25 0 6 3 1 5 -13 5 -14 0 -19 -2 -12 -5z"/>
<path d="M4566 1315 c-8 -22 -8 -27 3 -21 10 6 24 -71 16 -85 -4 -5 2 -9 13
-9 19 0 19 2 3 59 -18 67 -26 79 -35 56z"/>
<path d="M4655 1265 c0 -37 4 -65 10 -65 6 0 9 22 7 52 l-3 53 33 -55 c35 -58
34 -59 40 33 2 27 -1 47 -7 47 -6 0 -9 -20 -7 -47 l3 -48 -28 47 c-15 27 -32
48 -38 48 -6 0 -10 -28 -10 -65z"/>
<path d="M4788 1265 c4 -63 22 -84 22 -24 0 29 14 40 23 17 4 -10 6 -10 6 0 1
8 -8 16 -20 19 -16 4 -20 12 -16 29 2 14 -1 24 -7 24 -7 0 -10 -22 -8 -65z"/>
<path d="M4336 1294 c-9 -24 -7 -52 5 -59 6 -4 9 0 7 11 -2 14 3 18 20 17 16
-2 22 2 22 17 0 10 -4 22 -10 25 -6 3 -7 -1 -4 -9 4 -11 0 -16 -11 -16 -11 0
-15 5 -11 15 3 8 1 15 -3 15 -5 0 -12 -7 -15 -16z"/>
<path d="M4033 1281 c-6 -10 -30 -27 -52 -38 -37 -19 -39 -22 -26 -39 13 -17
14 -17 15 -2 0 21 36 43 45 28 3 -5 -3 -17 -15 -27 -24 -21 -26 -43 -4 -43 8
0 13 4 10 9 -7 10 20 34 41 37 29 5 37 21 23 54 -16 39 -23 43 -37 21z m22
-51 c-12 -11 -17 -12 -27 -1 -11 10 -9 15 6 27 25 18 43 -4 21 -26z"/>
<path d="M4132 1277 c-8 -10 -4 -24 18 -58 17 -24 30 -40 30 -36 0 4 -11 24
-25 44 -18 28 -22 40 -13 50 6 7 8 13 5 13 -2 0 -9 -6 -15 -13z"/>
<path d="M4539 1244 c-9 -19 -13 -34 -9 -34 9 0 35 59 29 64 -2 2 -11 -12 -20
-30z"/>
<path d="M4440 1236 c0 -24 17 -28 23 -6 3 13 0 20 -9 20 -8 0 -14 -6 -14 -14z"/>
<path d="M4852 1230 c-10 -17 -10 -20 3 -20 8 0 15 9 15 20 0 11 -1 20 -3 20
-1 0 -8 -9 -15 -20z"/>
<path d="M4103 1171 c-6 -10 -30 -27 -52 -38 -37 -19 -39 -22 -26 -39 13 -17
14 -17 15 -2 0 17 62 61 86 61 11 0 11 4 2 16 -7 9 -13 17 -13 18 0 1 -6 -6
-12 -16z"/>
<path d="M4208 1183 c6 -2 18 -2 25 0 6 3 1 5 -13 5 -14 0 -19 -2 -12 -5z"/>
<path d="M5068 1183 c7 -3 16 -2 19 1 4 3 -2 6 -13 5 -11 0 -14 -3 -6 -6z"/>
<path d="M4288 1173 c12 -2 22 -10 22 -17 0 -11 -11 -11 -57 0 -75 18 -75 18
-61 -6 7 -11 19 -20 27 -20 8 0 43 -5 78 -11 67 -12 84 -28 31 -30 l-33 -1 29
-7 c16 -3 31 -12 34 -18 4 -15 -9 -16 -63 -3 -22 5 -41 7 -43 6 -1 -2 7 -20
19 -41 21 -35 23 -36 36 -19 7 10 13 21 13 26 0 14 27 8 86 -19 53 -25 70 -28
171 -28 76 0 116 4 124 13 11 10 9 12 -9 12 -11 0 -56 18 -99 40 -43 23 -67
32 -53 21 24 -19 22 -19 -38 2 -59 21 -64 21 -92 5 -28 -16 -29 -16 -21 5 7
18 16 22 47 21 22 0 48 -4 59 -8 11 -4 4 2 -15 13 -21 12 -54 20 -82 21 -36 0
-48 4 -48 15 0 10 10 15 27 15 47 0 20 7 -47 12 -36 3 -55 3 -42 1z m180 -117
c15 -7 64 -21 109 -31 103 -22 99 -40 -7 -32 -75 5 -170 36 -170 55 0 25 28
28 68 8z"/>
<path d="M5018 1173 c7 -3 16 -2 19 1 4 3 -2 6 -13 5 -11 0 -14 -3 -6 -6z"/>
<path d="M4958 1163 c7 -3 16 -2 19 1 4 3 -2 6 -13 5 -11 0 -14 -3 -6 -6z"/>
<path d="M4478 1153 c12 -2 30 -2 40 0 9 3 -1 5 -23 4 -22 0 -30 -2 -17 -4z"/>
<path d="M4873 1153 c9 -2 23 -2 30 0 6 3 -1 5 -18 5 -16 0 -22 -2 -12 -5z"/>
<path d="M4673 1143 c26 -2 67 -2 90 0 23 2 2 3 -48 3 -49 0 -68 -1 -42 -3z"/>
<path d="M4084 1075 c-33 -33 -29 -69 8 -73 49 -6 106 45 92 82 -10 26 -70 21
-100 -9z m91 5 c10 -16 -54 -70 -81 -70 -33 0 -30 23 7 54 32 27 63 34 74 16z"/>
<path d="M4258 1093 c7 -3 16 -2 19 1 4 3 -2 6 -13 5 -11 0 -14 -3 -6 -6z"/>
<path d="M4303 965 c0 -8 4 -12 9 -9 5 3 6 10 3 15 -9 13 -12 11 -12 -6z"/>
</g>
</svg>
